<mxfile host="app.diagrams.net" modified="2024-05-21T03:02:06.352Z" agent="Mozilla/5.0 (Windows NT 10.0; Win64; x64) AppleWebKit/537.36 (KHTML, like Gecko) Chrome/124.0.0.0 Safari/537.36" version="24.4.4" etag="HfON0BWWc0yotQVjUyp4" type="github">
  <diagram name="Trang-1" id="3ipsFGAYu9hsW1haXSf4">
    <mxGraphModel>
      <root>
        <mxCell id="0" />
        <mxCell id="1" parent="0" />
      </root>
    </mxGraphModel>
  </diagram>
</mxfile>
